<?xml version="1.0" standalone="no"?>
<!DOCTYPE svg PUBLIC "-//W3C//DTD SVG 20010904//EN"
 "http://www.w3.org/TR/2001/REC-SVG-20010904/DTD/svg10.dtd">
<svg version="1.0" xmlns="http://www.w3.org/2000/svg"
 width="2038.000000pt" height="714.000000pt" viewBox="0 0 2038.000000 714.000000"
 preserveAspectRatio="xMidYMid meet">

<g transform="translate(0.000000,714.000000) scale(0.100000,-0.100000)"
fill="#000000" stroke="none">
<path d="M3940 4890 c-363 -67 -667 -288 -843 -611 -158 -288 -201 -657 -116
-979 118 -444 434 -763 868 -877 129 -34 389 -43 527 -19 256 44 449 142 631
319 186 180 296 380 360 647 14 60 18 118 18 285 0 227 -9 284 -71 457 -126
349 -398 619 -741 734 -187 63 -437 80 -633 44z m472 -175 c320 -77 575 -302
708 -624 38 -94 58 -170 76 -291 18 -124 17 -194 -1 -321 -63 -431 -337 -769
-715 -882 -161 -48 -320 -59 -480 -33 -223 37 -410 135 -563 295 -211 221
-307 470 -307 795 0 385 160 707 453 914 227 161 540 217 829 147z"/>
<path d="M7970 3665 l0 -1235 85 0 85 0 0 1235 0 1235 -85 0 -85 0 0 -1235z"/>
<path d="M6630 4190 c-212 -27 -366 -112 -486 -270 l-54 -72 0 151 0 151 -85
0 -85 0 0 -860 0 -860 85 0 85 0 0 558 0 558 24 70 c37 109 72 169 141 243 68
72 148 121 255 157 77 26 271 26 355 0 135 -41 228 -119 293 -243 71 -138 72
-150 72 -782 l0 -561 86 0 85 0 -3 598 c-4 572 -5 600 -25 673 -55 198 -169
339 -337 420 -122 59 -278 85 -406 69z"/>
<path d="M8560 4146 c0 -5 392 -817 593 -1226 44 -91 90 -187 102 -215 12 -27
45 -98 73 -157 29 -59 52 -112 52 -118 0 -17 -87 -180 -128 -240 -47 -69 -122
-126 -191 -146 -79 -24 -223 -15 -320 19 -41 15 -76 25 -77 24 -1 -1 -14 -31
-28 -67 -32 -77 -31 -78 79 -113 60 -19 93 -22 225 -22 154 0 156 0 223 32 37
18 92 56 123 85 110 103 172 207 284 473 39 94 82 195 96 226 13 31 40 97 60
145 19 49 42 103 49 119 8 17 61 145 120 285 58 140 121 291 140 335 18 44 77
183 129 308 53 126 96 235 96 243 0 11 -18 14 -86 14 l-85 0 -15 -37 c-8 -21
-19 -47 -24 -58 -5 -11 -66 -162 -136 -335 -69 -173 -160 -398 -201 -500 -41
-102 -111 -275 -155 -385 -44 -110 -84 -204 -89 -209 -5 -6 -21 18 -40 60 -17
38 -46 101 -64 139 -18 39 -46 99 -63 135 -143 312 -189 410 -292 630 -42 91
-92 198 -111 239 -19 41 -59 129 -90 195 l-57 121 -96 3 c-53 1 -96 1 -96 -2z"/>
</g>
</svg>
