<!DOCTYPE svg PUBLIC "-//W3C//DTD SVG 20010904//EN" "http://www.w3.org/TR/2001/REC-SVG-20010904/DTD/svg10.dtd">
<svg version="1.0" xmlns="http://www.w3.org/2000/svg" width="1200px" height="900px" viewBox="0 0 12000 9000" preserveAspectRatio="xMidYMid meet">
<g id="layer101" fill="#020202" stroke="none">
<path d="M5565 3870 c-11 -4 -35 -14 -52 -20 -36 -13 -39 -25 -22 -64 9 -19 16 -23 28 -17 9 5 47 14 85 19 158 25 228 -25 323 -229 1 -3 -8 -28 -21 -55 -14 -27 -63 -129 -110 -226 -47 -97 -123 -255 -170 -350 -107 -221 -176 -367 -176 -373 0 -3 22 -5 48 -5 l48 0 43 93 c23 50 48 103 56 117 7 14 33 70 58 125 24 55 61 136 82 180 95 202 115 246 115 255 0 6 5 10 10 10 6 0 10 6 10 13 0 19 39 97 49 97 11 0 43 -67 92 -194 23 -60 48 -120 55 -135 8 -14 14 -30 14 -34 0 -5 7 -25 16 -45 9 -21 20 -46 24 -57 4 -11 15 -36 23 -55 8 -19 32 -78 52 -130 20 -52 50 -128 68 -167 l32 -73 43 0 c23 0 42 5 42 11 0 10 -18 55 -84 209 -55 127 -76 178 -76 183 0 4 -11 30 -24 59 -13 29 -36 82 -51 118 -15 36 -38 89 -51 118 -13 29 -24 58 -24 65 0 7 -4 17 -8 23 -5 5 -28 56 -52 114 -65 158 -89 210 -128 270 -70 110 -157 160 -274 159 -40 0 -82 -4 -93 -9z"/>
<path d="M2725 3569 c-142 -44 -177 -58 -230 -89 -67 -39 -169 -134 -211 -195 -99 -145 -153 -352 -133 -507 30 -233 123 -404 289 -533 92 -71 181 -106 329 -130 83 -13 106 -13 190 0 112 17 138 24 206 56 256 118 415 375 415 669 0 134 -26 240 -88 360 -123 237 -367 381 -640 379 -53 0 -110 -5 -127 -10z m246 -88 c36 -5 81 -15 100 -23 19 -9 48 -21 64 -28 124 -50 273 -225 307 -360 45 -176 48 -245 17 -382 -32 -138 -98 -253 -199 -345 -176 -161 -486 -192 -694 -70 -138 80 -243 211 -282 353 -40 145 -43 280 -9 400 41 143 150 302 246 356 21 12 39 25 39 30 0 4 5 8 10 8 6 0 29 9 53 19 67 30 79 34 132 41 72 10 141 11 216 1z"/>
<path d="M3890 3050 l0 -500 45 0 45 0 0 84 c0 47 4 87 8 90 5 3 22 -12 38 -33 93 -120 203 -168 364 -159 176 10 293 104 346 277 11 36 14 124 14 394 l0 347 -40 0 -39 0 -4 -332 c-4 -323 -9 -402 -28 -414 -5 -3 -9 -14 -9 -25 0 -26 -113 -137 -147 -144 -16 -4 -38 -11 -51 -16 -13 -5 -53 -9 -89 -9 -174 0 -292 94 -352 279 -7 22 -11 147 -11 347 l0 314 -45 0 -45 0 0 -500z"/>
<path d="M5100 2835 l0 -715 45 0 45 0 0 715 0 715 -45 0 -45 0 0 -715z"/>
</g>
<g id="layer102" fill="#353535" stroke="none">
<path d="M3895 3050 c0 -278 1 -391 2 -253 2 139 2 367 0 505 -1 139 -2 26 -2 -252z"/>
<path d="M2843 2193 c9 -2 25 -2 35 0 9 3 1 5 -18 5 -19 0 -27 -2 -17 -5z"/>
</g>
<g id="layer103" fill="#6c6c6c" stroke="none">
</g>
<g id="layer104" fill="#08afed" stroke="none">
<path d="M7893 4041 c-53 -33 -52 -66 1 -144 14 -21 26 -42 26 -47 0 -6 5 -10 10 -10 6 0 10 -5 10 -10 0 -6 5 -16 11 -23 22 -25 269 -407 269 -416 0 -5 4 -11 9 -13 7 -2 70 -102 131 -208 8 -14 23 -36 33 -49 9 -13 17 -33 17 -45 -1 -20 -1 -20 -21 4 -30 37 -40 50 -79 100 -61 78 -83 103 -170 191 -164 165 -240 204 -323 164 -76 -36 -82 -134 -16 -250 50 -88 29 -84 -51 11 -86 101 -207 208 -265 235 -76 35 -149 17 -182 -44 -13 -24 -18 -53 -17 -112 2 -82 28 -164 82 -255 60 -101 92 -172 98 -219 8 -60 -4 -79 -93 -138 -98 -65 -130 -184 -78 -289 32 -64 89 -122 143 -145 52 -22 125 -25 141 -5 13 15 10 22 -66 136 -42 61 -43 65 -43 144 0 76 2 84 30 118 16 20 49 46 72 58 68 35 88 58 88 102 0 37 -15 71 -137 313 -55 110 -69 159 -53 199 12 32 42 34 90 5 38 -23 214 -199 258 -258 15 -20 29 -38 32 -41 9 -7 132 -162 155 -194 23 -33 68 -92 91 -121 33 -42 74 -137 82 -187 7 -52 8 -53 42 -56 42 -3 89 24 109 62 13 24 12 34 -8 97 -12 38 -50 118 -83 177 -33 59 -67 119 -74 133 -8 15 -21 32 -29 39 -8 7 -15 17 -15 22 0 5 -17 35 -38 66 -106 156 -151 282 -101 282 47 0 158 -100 299 -269 25 -29 50 -59 55 -65 6 -6 31 -38 55 -71 25 -33 47 -62 50 -65 18 -18 99 -130 112 -155 42 -81 68 -164 68 -217 l0 -41 39 6 c79 10 124 82 103 161 -6 20 -6 36 -2 36 5 0 42 -29 81 -65 167 -150 337 -178 402 -66 24 39 47 125 47 173 0 36 -33 174 -50 207 -4 9 -18 39 -31 66 -13 28 -27 52 -31 53 -5 2 -8 8 -8 13 0 19 -81 129 -142 194 -33 36 -58 68 -55 71 20 21 131 -46 228 -137 61 -59 196 -221 279 -337 25 -34 60 -83 77 -107 l33 -44 -15 -83 c-20 -114 -19 -126 16 -196 53 -107 156 -176 253 -170 69 4 72 26 14 99 -111 139 -112 187 -12 639 11 53 15 104 12 174 l-5 100 66 -70 c130 -139 145 -156 271 -328 116 -158 139 -186 151 -186 20 0 7 32 -41 102 -28 40 -56 81 -63 92 -55 82 -180 243 -257 331 -87 99 -206 198 -296 245 -110 57 -256 52 -328 -11 -54 -47 -83 -153 -52 -194 12 -16 16 -17 30 -6 9 7 16 27 16 43 0 38 23 81 54 102 38 25 126 22 162 -6 38 -29 41 -34 60 -98 13 -44 15 -82 10 -190 -6 -161 -27 -312 -42 -317 -7 -2 -24 18 -40 44 -15 26 -31 52 -36 58 -4 5 -32 42 -61 80 -28 39 -54 72 -57 75 -3 3 -25 30 -50 60 -110 134 -275 265 -410 326 -30 14 -64 29 -75 34 -29 13 -90 27 -177 40 -65 9 -82 9 -114 -5 -63 -26 -99 -70 -128 -157 -3 -10 -10 -18 -15 -18 -11 0 -71 83 -71 98 0 6 -4 12 -8 14 -11 4 -92 127 -92 139 0 5 -4 9 -8 9 -5 0 -19 19 -32 43 -13 23 -27 44 -30 47 -4 3 -13 16 -20 29 -6 13 -26 43 -44 66 -17 23 -53 73 -81 111 -53 74 -104 134 -114 134 -3 0 -20 -9 -38 -19z m794 -605 c154 -101 355 -371 417 -560 21 -61 31 -153 22 -200 -38 -201 -344 72 -529 474 -59 128 -73 220 -42 280 26 50 62 52 132 6z"/>
<path d="M6503 3758 c-19 -14 -42 -45 -57 -78 -42 -95 -42 -125 -4 -255 19 -63 146 -305 160 -305 4 0 8 -5 8 -11 0 -9 94 -153 110 -169 3 -3 15 -19 28 -37 86 -123 -79 -465 -297 -617 -67 -47 -168 -86 -224 -86 -48 0 -67 -13 -67 -45 0 -57 130 -108 445 -176 77 -17 167 -34 200 -39 33 -5 85 -14 115 -19 48 -9 209 -33 424 -62 60 -8 93 -22 116 -50 13 -16 52 -29 85 -29 29 0 38 5 42 21 5 19 12 20 77 16 98 -5 436 -34 576 -48 172 -18 672 -18 734 0 l48 14 -5 48 c-7 55 -22 84 -53 97 -13 7 -208 11 -503 11 -265 0 -486 3 -490 5 -8 5 -192 25 -326 35 l-80 6 -36 65 c-60 109 -81 145 -88 150 -4 3 -20 28 -36 55 -17 28 -34 58 -40 67 -5 9 -52 77 -102 152 -51 75 -93 140 -93 145 0 5 -4 11 -9 13 -7 2 -235 342 -298 443 -181 290 -257 462 -270 603 -9 107 -28 123 -90 80z m392 -1056 c28 -37 53 -71 57 -77 5 -5 23 -29 40 -51 18 -23 41 -53 52 -68 10 -14 47 -65 82 -113 35 -49 67 -93 71 -98 37 -47 173 -259 173 -270 0 -8 -75 -6 -147 5 -291 41 -379 54 -528 81 -236 42 -240 43 -238 54 1 6 9 15 19 20 145 83 296 325 348 558 4 15 10 27 14 27 4 0 30 -31 57 -68z"/>
<path d="M2486 3265 c-12 -19 -16 -50 -16 -134 0 -107 1 -111 25 -127 21 -13 25 -24 25 -63 0 -25 7 -59 15 -75 8 -15 15 -49 15 -73 0 -47 17 -121 32 -137 4 -6 8 -16 8 -24 0 -21 78 -99 113 -113 18 -7 35 -17 39 -23 4 -6 52 -10 115 -10 90 0 116 3 153 21 101 48 157 133 167 252 3 42 12 88 19 103 8 15 14 52 14 82 0 52 2 57 30 71 l30 16 0 112 c-1 134 -7 147 -73 147 -48 0 -57 -9 -57 -56 0 -32 -10 -31 -77 13 -58 38 -58 38 -181 41 -123 4 -124 4 -188 -28 -35 -18 -64 -37 -64 -41 0 -5 -7 -9 -15 -9 -8 0 -15 9 -15 21 0 41 -18 59 -59 59 -30 0 -42 -6 -55 -25z"/>
<path d="M8323 2340 c-39 -16 -56 -54 -51 -119 4 -59 11 -72 58 -104 31 -22 98 -22 129 -1 67 47 65 210 -2 228 -32 8 -109 6 -134 -4z"/>
</g>
<g id="layer105" fill="#40a7bd" stroke="none">
<path d="M2672 2822 c-9 -6 -10 -16 -4 -33 5 -13 14 -45 21 -71 14 -61 44 -90 117 -112 58 -17 61 -17 118 3 73 26 92 42 124 109 20 43 23 59 16 80 l-9 27 -185 2 c-102 2 -191 -1 -198 -5z"/>
<path d="M3056 2554 c-5 -12 -2 -15 10 -10 8 3 18 6 20 6 2 0 4 5 4 10 0 16 -27 11 -34 -6z"/>
</g>
<g id="layer106" fill="#72c7e3" stroke="none">
<path d="M2982 3121 c-69 -53 -32 -161 56 -161 79 0 121 87 70 144 -29 31 -96 41 -126 17z"/>
<path d="M2621 3104 c-49 -62 -8 -144 70 -144 82 0 122 94 63 148 -37 33 -105 31 -133 -4z"/>
<path d="M2553 2780 c0 -30 2 -43 4 -27 2 15 2 39 0 55 -2 15 -4 2 -4 -28z"/>
<path d="M2680 2780 c0 -87 37 -145 109 -169 79 -26 186 -1 229 54 27 35 45 91 40 130 l-3 30 -187 3 -188 2 0 -50z"/>
<path d="M3172 2760 c0 -19 2 -27 5 -17 2 9 2 25 0 35 -3 9 -5 1 -5 -18z"/>
<path d="M8403 1933 c20 -2 54 -2 75 0 20 2 3 4 -38 4 -41 0 -58 -2 -37 -4z"/>
<path d="M8638 1933 c23 -2 61 -2 85 0 23 2 4 4 -43 4 -47 0 -66 -2 -42 -4z"/>
</g>
<g id="layer107" fill="#d2f7fb" stroke="none">
<path d="M2997 3122 c-28 -17 -47 -51 -47 -83 0 -31 53 -79 88 -79 43 0 82 43 82 90 0 63 -70 104 -123 72z"/>
<path d="M2633 3108 c-52 -56 -16 -148 57 -148 37 0 90 47 90 80 0 29 -26 76 -45 84 -35 13 -82 6 -102 -16z"/>
<path d="M2693 2824 c-15 -7 -7 -98 13 -136 7 -14 28 -37 46 -50 28 -19 45 -23 114 -23 69 0 85 3 117 25 21 14 43 41 52 63 20 50 20 113 -1 121 -18 7 -323 7 -341 0z"/>
</g>
<g id="layer108" fill="#fafefb" stroke="none">
<path d="M2999 3117 c-10 -11 -22 -35 -25 -53 -8 -41 24 -86 66 -95 25 -5 30 -2 49 33 25 47 26 60 6 97 -19 38 -69 47 -96 18z"/>
<path d="M2636 3090 c-21 -52 -21 -54 9 -86 13 -14 23 -30 21 -33 -3 -4 9 -7 25 -6 21 0 29 5 29 17 0 10 9 22 20 28 15 8 20 21 20 49 0 47 -24 71 -72 71 -32 0 -37 -4 -52 -40z"/>
<path d="M2709 2806 c-15 -16 -11 -60 10 -107 16 -35 27 -45 68 -61 100 -38 196 -10 233 68 17 37 27 89 18 96 -12 7 -321 11 -329 4z"/>
</g>


</svg>